<svg width="171" height="111" viewBox="0 0 171 111" fill="none" xmlns="http://www.w3.org/2000/svg">
<path d="M47.3516 56.7441C46.0898 59.8613 44.3086 63.1888 42.0078 66.7266C39.7318 70.2396 37.4186 72.4785 35.0684 73.4434C32.7428 74.3835 30.7018 74.8535 28.9453 74.8535C28.0794 74.8535 26.3848 74.6432 23.8613 74.2227C17.6764 73.2083 13.5449 72.7012 11.4668 72.7012C8.57227 72.7012 6.09831 73.6165 4.04492 75.4473L2.52344 74.5195C3.26562 71.4271 4.6263 68.6934 6.60547 66.3184C8.60938 63.9186 10.4896 62.1003 12.2461 60.8633C16.2539 57.9935 18.8763 56.0267 20.1133 54.9629C21.3503 53.8991 22.4883 52.6126 23.5273 51.1035C24.5911 49.5944 25.3828 47.8132 25.9023 45.7598C26.4219 43.6816 26.6816 41.0592 26.6816 37.8926C26.6816 34.6517 26.36 32.252 25.7168 30.6934C25.0983 29.11 24.0098 27.8359 22.4512 26.8711C20.8926 25.9062 19.1608 25.4238 17.2559 25.4238C15.821 25.4238 14.2624 25.7949 12.5801 26.5371C10.9225 27.2546 9.56185 28.1328 8.49805 29.1719L8.64648 29.3203C9.58659 28.9987 10.5514 28.8379 11.541 28.8379C13.6934 28.8379 15.4251 29.4935 16.7363 30.8047C18.0475 32.0911 18.7031 33.7982 18.7031 35.9258C18.7031 38.1523 17.9733 40.0202 16.5137 41.5293C15.0788 43.0137 13.2728 43.7559 11.0957 43.7559C8.94336 43.7559 7.06315 42.9766 5.45508 41.418C3.84701 39.8594 3.04297 38.0286 3.04297 35.9258C3.04297 32.388 4.81185 29.3574 8.34961 26.834C11.9121 24.2858 16.526 23.0117 22.1914 23.0117C29.3906 23.0117 35.0807 24.5332 39.2617 27.5762C43.4427 30.6191 45.5332 34.7135 45.5332 39.8594C45.5332 43.3971 44.5065 46.2793 42.4531 48.5059C40.3997 50.7324 37.7526 52.526 34.5117 53.8867C31.2956 55.2227 28.1042 56.2246 24.9375 56.8926C22.7357 57.3874 21.0781 57.8079 19.9648 58.1543C18.8763 58.5007 17.8249 59.0697 16.8105 59.8613L16.959 60.0098C18.2702 59.2923 19.8411 58.9336 21.6719 58.9336C22.8841 58.9336 25.2344 59.0944 28.7227 59.416C32.2852 59.7129 34.6973 59.8613 35.959 59.8613C38.7793 59.8613 40.8327 59.6758 42.1191 59.3047C43.4303 58.9089 44.6178 57.7214 45.6816 55.7422L47.3516 56.7441ZM108.834 39.6367H107.164C106.694 37.1875 106.039 35.1712 105.198 33.5879C104.381 32.0046 103.194 30.582 101.635 29.3203C100.101 28.0339 98.5674 27.1556 97.0336 26.6855C95.5245 26.2155 93.4587 25.9805 90.8363 25.9805H87.348V48.543C89.822 48.4935 91.7641 48.0605 93.1742 47.2441C94.6091 46.4277 95.6977 45.2031 96.4398 43.5703C97.2068 41.9128 97.5902 39.5872 97.5902 36.5938H99.3344V61.3828H97.5902C97.4913 57.474 96.7243 54.6536 95.2895 52.9219C93.8793 51.1654 91.3311 50.2871 87.6449 50.2871H87.348V72.2559H93.9535V74H59.9242V72.2559H65.6762V25.9805H59.9242V24.2363H108.834V39.6367ZM168.499 65.2422C165.629 68.9036 162.66 71.5384 159.593 73.1465C156.525 74.7298 152.715 75.5215 148.163 75.5215C140.221 75.5215 133.703 73.0599 128.606 68.1367C123.535 63.2135 120.999 56.8555 120.999 49.0625C120.999 41.0716 123.485 34.6764 128.458 29.877C133.455 25.0527 139.962 22.6406 147.977 22.6406C153.148 22.6406 157.354 23.9766 160.595 26.6484L168.202 22.7148V43.3105H166.458C166.458 39.6986 165.542 36.4824 163.712 33.6621C161.881 30.8418 159.716 28.6895 157.218 27.2051C154.744 25.7207 152.257 24.9785 149.759 24.9785C148.546 24.9785 147.544 25.2754 146.753 25.8691C145.961 26.4382 145.466 27.1927 145.268 28.1328C145.07 29.0729 144.971 30.5078 144.971 32.4375V65.2422C144.971 68.0872 145.417 70.1406 146.307 71.4023C147.198 72.6393 148.695 73.2578 150.798 73.2578C156.735 73.2578 162.054 70.1901 166.755 64.0547L168.499 65.2422Z" fill="#751F2A"/>
<line x1="-0.00443779" y1="85.25" x2="168.996" y2="84.25" stroke="#751F2A" stroke-width="1.5"/>
<path d="M10.0547 93.1738C10.0547 93.2852 10.0488 93.3848 10.0371 93.4727C10.0254 93.5547 10.0078 93.625 9.98438 93.6836C9.96094 93.7363 9.93164 93.7744 9.89648 93.7979C9.86133 93.8213 9.82324 93.833 9.78223 93.833C9.71191 93.833 9.59473 93.7773 9.43066 93.666C9.2666 93.5547 9.04688 93.4316 8.77148 93.2969C8.49609 93.1621 8.16504 93.0391 7.77832 92.9277C7.39746 92.8164 6.94336 92.7607 6.41602 92.7607C5.78906 92.7607 5.22656 92.875 4.72852 93.1035C4.23047 93.332 3.80859 93.6484 3.46289 94.0527C3.11719 94.457 2.85059 94.9375 2.66309 95.4941C2.48145 96.0508 2.39062 96.6543 2.39062 97.3047C2.39062 98.0312 2.49023 98.6758 2.68945 99.2383C2.89453 99.8008 3.17578 100.275 3.5332 100.662C3.89062 101.049 4.31543 101.342 4.80762 101.541C5.30566 101.74 5.85059 101.84 6.44238 101.84C6.79395 101.84 7.14844 101.799 7.50586 101.717C7.86914 101.629 8.20605 101.5 8.5166 101.33V98.0166H5.87988C5.78027 98.0166 5.7041 97.9668 5.65137 97.8672C5.60449 97.7676 5.58105 97.6123 5.58105 97.4014C5.58105 97.29 5.58691 97.1963 5.59863 97.1201C5.61035 97.0381 5.62793 96.9736 5.65137 96.9268C5.68066 96.874 5.71289 96.8359 5.74805 96.8125C5.7832 96.7891 5.82715 96.7773 5.87988 96.7773H9.49219C9.55664 96.7773 9.62109 96.7891 9.68555 96.8125C9.75 96.8359 9.80859 96.8711 9.86133 96.918C9.91406 96.9648 9.95508 97.0293 9.98438 97.1113C10.0137 97.1934 10.0283 97.2871 10.0283 97.3926V101.726C10.0283 101.878 10.002 102.01 9.94922 102.121C9.89648 102.232 9.78516 102.332 9.61523 102.42C9.44531 102.502 9.22559 102.593 8.95605 102.692C8.68652 102.792 8.4082 102.877 8.12109 102.947C7.83398 103.018 7.54395 103.07 7.25098 103.105C6.95801 103.141 6.66797 103.158 6.38086 103.158C5.50195 103.158 4.7168 103.023 4.02539 102.754C3.33398 102.479 2.74805 102.089 2.26758 101.585C1.79297 101.081 1.42969 100.478 1.17773 99.7744C0.925781 99.0713 0.799805 98.2861 0.799805 97.4189C0.799805 96.5166 0.93457 95.6992 1.2041 94.9668C1.47949 94.2344 1.86328 93.6104 2.35547 93.0947C2.85352 92.5791 3.44824 92.1807 4.13965 91.8994C4.83691 91.6123 5.60742 91.4688 6.45117 91.4688C6.88477 91.4688 7.29199 91.5068 7.67285 91.583C8.05371 91.6592 8.39062 91.75 8.68359 91.8555C8.98242 91.9551 9.23145 92.0664 9.43066 92.1895C9.63574 92.3066 9.77637 92.4033 9.85254 92.4795C9.92871 92.5557 9.98145 92.6436 10.0107 92.7432C10.04 92.8428 10.0547 92.9863 10.0547 93.1738ZM22.6902 98.4824C22.6902 98.7109 22.6316 98.875 22.5144 98.9746C22.4031 99.0684 22.2742 99.1152 22.1277 99.1152H16.9421C16.9421 99.5547 16.9861 99.9502 17.074 100.302C17.1619 100.653 17.3084 100.955 17.5134 101.207C17.7185 101.459 17.9851 101.652 18.3132 101.787C18.6414 101.922 19.0427 101.989 19.5173 101.989C19.8923 101.989 20.2263 101.96 20.5193 101.901C20.8123 101.837 21.0642 101.767 21.2752 101.69C21.492 101.614 21.6677 101.547 21.8025 101.488C21.9431 101.424 22.0486 101.392 22.1189 101.392C22.1599 101.392 22.1951 101.403 22.2244 101.427C22.2595 101.444 22.2859 101.474 22.3035 101.515C22.3211 101.556 22.3328 101.614 22.3386 101.69C22.3504 101.761 22.3562 101.849 22.3562 101.954C22.3562 102.03 22.3533 102.098 22.3474 102.156C22.3416 102.209 22.3328 102.259 22.3211 102.306C22.3152 102.347 22.3005 102.385 22.2771 102.42C22.2595 102.455 22.2332 102.49 22.198 102.525C22.1687 102.555 22.075 102.607 21.9168 102.684C21.7586 102.754 21.5535 102.824 21.3015 102.895C21.0496 102.965 20.7566 103.026 20.4226 103.079C20.0945 103.138 19.7429 103.167 19.3679 103.167C18.7175 103.167 18.1462 103.076 17.6541 102.895C17.1677 102.713 16.7576 102.443 16.4236 102.086C16.0896 101.729 15.8377 101.28 15.6677 100.741C15.4978 100.202 15.4129 99.5752 15.4129 98.8604C15.4129 98.1807 15.5007 97.5713 15.6765 97.0322C15.8523 96.4873 16.1043 96.0273 16.4324 95.6523C16.7664 95.2715 17.1677 94.9814 17.6365 94.7822C18.1052 94.5771 18.6296 94.4746 19.2097 94.4746C19.8308 94.4746 20.3582 94.5742 20.7918 94.7734C21.2312 94.9727 21.5916 95.2422 21.8728 95.582C22.1541 95.916 22.3591 96.3115 22.488 96.7686C22.6228 97.2197 22.6902 97.7031 22.6902 98.2188V98.4824ZM21.2312 98.0518C21.2488 97.29 21.0789 96.6924 20.7214 96.2588C20.3699 95.8252 19.8455 95.6084 19.1482 95.6084C18.7908 95.6084 18.4773 95.6758 18.2078 95.8105C17.9382 95.9453 17.7127 96.124 17.531 96.3467C17.3494 96.5693 17.2087 96.8301 17.1091 97.1289C17.0095 97.4219 16.9539 97.7295 16.9421 98.0518H21.2312ZM33.1109 100.627C33.1109 101.031 33.0347 101.392 32.8823 101.708C32.7359 102.024 32.5249 102.291 32.2495 102.508C31.9741 102.725 31.646 102.889 31.2652 103C30.8843 103.111 30.4654 103.167 30.0083 103.167C29.7271 103.167 29.4575 103.144 29.1997 103.097C28.9478 103.056 28.7193 103.003 28.5142 102.938C28.315 102.868 28.145 102.798 28.0044 102.728C27.8638 102.651 27.7612 102.584 27.6968 102.525C27.6323 102.467 27.5855 102.385 27.5562 102.279C27.5269 102.174 27.5122 102.03 27.5122 101.849C27.5122 101.737 27.5181 101.644 27.5298 101.567C27.5415 101.491 27.5562 101.43 27.5737 101.383C27.5913 101.336 27.6148 101.304 27.6441 101.286C27.6792 101.263 27.7173 101.251 27.7583 101.251C27.8228 101.251 27.9165 101.292 28.0396 101.374C28.1685 101.45 28.3237 101.535 28.5054 101.629C28.6929 101.723 28.9126 101.811 29.1646 101.893C29.4165 101.969 29.7066 102.007 30.0347 102.007C30.2808 102.007 30.5034 101.98 30.7027 101.928C30.9019 101.875 31.0747 101.799 31.2212 101.699C31.3677 101.594 31.479 101.462 31.5552 101.304C31.6372 101.146 31.6782 100.958 31.6782 100.741C31.6782 100.519 31.6196 100.331 31.5025 100.179C31.3911 100.026 31.2417 99.8916 31.0542 99.7744C30.8667 99.6572 30.6558 99.5547 30.4214 99.4668C30.187 99.373 29.9439 99.2764 29.6919 99.1768C29.4458 99.0771 29.2027 98.9658 28.9624 98.8428C28.728 98.7139 28.5171 98.5586 28.3296 98.377C28.1421 98.1953 27.9898 97.9785 27.8726 97.7266C27.7612 97.4746 27.7056 97.1729 27.7056 96.8213C27.7056 96.5107 27.7642 96.2148 27.8814 95.9336C28.0044 95.6465 28.1861 95.3975 28.4263 95.1865C28.6665 94.9697 28.9654 94.7969 29.3228 94.668C29.6861 94.5391 30.1079 94.4746 30.5884 94.4746C30.7993 94.4746 31.0103 94.4922 31.2212 94.5273C31.4321 94.5625 31.6226 94.6064 31.7925 94.6592C31.9624 94.7119 32.106 94.7705 32.2232 94.835C32.3462 94.8936 32.437 94.9463 32.4956 94.9932C32.5601 95.04 32.6011 95.0811 32.6187 95.1162C32.6421 95.1514 32.6568 95.1924 32.6626 95.2393C32.6743 95.2803 32.6831 95.333 32.689 95.3975C32.7007 95.4619 32.7066 95.541 32.7066 95.6348C32.7066 95.7344 32.7007 95.8223 32.689 95.8984C32.6831 95.9688 32.6685 96.0273 32.645 96.0742C32.6275 96.1211 32.604 96.1562 32.5747 96.1797C32.5454 96.1973 32.5132 96.2061 32.478 96.2061C32.4253 96.2061 32.3491 96.1738 32.2495 96.1094C32.1499 96.0449 32.021 95.9775 31.8628 95.9072C31.7046 95.8311 31.5171 95.7607 31.3003 95.6963C31.0894 95.6318 30.8462 95.5996 30.5708 95.5996C30.3247 95.5996 30.1079 95.6289 29.9204 95.6875C29.7329 95.7402 29.5777 95.8193 29.4546 95.9248C29.3374 96.0244 29.2466 96.1445 29.1821 96.2852C29.1236 96.4258 29.0943 96.5781 29.0943 96.7422C29.0943 96.9707 29.1529 97.1641 29.27 97.3223C29.3872 97.4746 29.5396 97.6094 29.7271 97.7266C29.9146 97.8438 30.1284 97.9492 30.3687 98.043C30.6089 98.1367 30.8521 98.2334 31.0982 98.333C31.3501 98.4326 31.5962 98.5439 31.8364 98.667C32.0825 98.79 32.2993 98.9395 32.4868 99.1152C32.6743 99.291 32.8237 99.502 32.9351 99.748C33.0523 99.9941 33.1109 100.287 33.1109 100.627ZM42.3362 102.2C42.3362 102.37 42.3245 102.505 42.3011 102.604C42.2776 102.704 42.2425 102.777 42.1956 102.824C42.1487 102.871 42.0784 102.915 41.9846 102.956C41.8909 102.997 41.7825 103.029 41.6595 103.053C41.5423 103.082 41.4163 103.105 41.2815 103.123C41.1468 103.141 41.012 103.149 40.8772 103.149C40.4671 103.149 40.1155 103.097 39.8225 102.991C39.5296 102.88 39.2893 102.716 39.1018 102.499C38.9143 102.276 38.7766 101.998 38.6888 101.664C38.6067 101.324 38.5657 100.926 38.5657 100.469V95.8457H37.4583C37.3704 95.8457 37.3001 95.7988 37.2473 95.7051C37.1946 95.6113 37.1682 95.459 37.1682 95.248C37.1682 95.1367 37.1741 95.043 37.1858 94.9668C37.2034 94.8906 37.2239 94.8291 37.2473 94.7822C37.2708 94.7295 37.3001 94.6943 37.3352 94.6768C37.3763 94.6533 37.4202 94.6416 37.4671 94.6416H38.5657V92.7607C38.5657 92.7197 38.5745 92.6816 38.5921 92.6465C38.6155 92.6113 38.6536 92.582 38.7063 92.5586C38.7649 92.5293 38.8411 92.5088 38.9348 92.4971C39.0286 92.4854 39.1458 92.4795 39.2864 92.4795C39.4329 92.4795 39.553 92.4854 39.6468 92.4971C39.7405 92.5088 39.8138 92.5293 39.8665 92.5586C39.9192 92.582 39.9573 92.6113 39.9807 92.6465C40.0042 92.6816 40.0159 92.7197 40.0159 92.7607V94.6416H42.0462C42.093 94.6416 42.1341 94.6533 42.1692 94.6768C42.2044 94.6943 42.2337 94.7295 42.2571 94.7822C42.2864 94.8291 42.3069 94.8906 42.3186 94.9668C42.3304 95.043 42.3362 95.1367 42.3362 95.248C42.3362 95.459 42.3098 95.6113 42.2571 95.7051C42.2044 95.7988 42.1341 95.8457 42.0462 95.8457H40.0159V100.258C40.0159 100.803 40.095 101.216 40.2532 101.497C40.4173 101.772 40.7073 101.91 41.1233 101.91C41.2581 101.91 41.3782 101.898 41.4837 101.875C41.5891 101.846 41.6829 101.816 41.7649 101.787C41.847 101.758 41.9173 101.731 41.9759 101.708C42.0345 101.679 42.0872 101.664 42.1341 101.664C42.1634 101.664 42.1897 101.673 42.2132 101.69C42.2425 101.702 42.263 101.729 42.2747 101.77C42.2923 101.811 42.3069 101.866 42.3186 101.937C42.3304 102.007 42.3362 102.095 42.3362 102.2ZM53.2227 102.789C53.2227 102.859 53.1993 102.912 53.1524 102.947C53.1055 102.982 53.0411 103.009 52.959 103.026C52.877 103.044 52.7569 103.053 52.5987 103.053C52.4463 103.053 52.3233 103.044 52.2295 103.026C52.1416 103.009 52.0772 102.982 52.0362 102.947C51.9952 102.912 51.9746 102.859 51.9746 102.789V101.998C51.6289 102.367 51.2422 102.654 50.8145 102.859C50.3926 103.064 49.9444 103.167 49.4698 103.167C49.0537 103.167 48.6758 103.111 48.336 103C48.002 102.895 47.7149 102.739 47.4746 102.534C47.2403 102.329 47.0557 102.077 46.9209 101.778C46.792 101.479 46.7276 101.14 46.7276 100.759C46.7276 100.313 46.8184 99.9268 47 99.5986C47.1817 99.2705 47.4424 98.998 47.7823 98.7812C48.1221 98.5645 48.5381 98.4033 49.0303 98.2979C49.5225 98.1865 50.0762 98.1309 50.6914 98.1309H51.7813V97.5156C51.7813 97.2109 51.7491 96.9414 51.6846 96.707C51.6202 96.4727 51.5147 96.2793 51.3682 96.127C51.2276 95.9688 51.043 95.8516 50.8145 95.7754C50.586 95.6934 50.3047 95.6523 49.9707 95.6523C49.6133 95.6523 49.2911 95.6963 49.0039 95.7842C48.7227 95.8662 48.4737 95.96 48.2569 96.0654C48.0459 96.165 47.8672 96.2588 47.7207 96.3467C47.5801 96.4287 47.4746 96.4697 47.4043 96.4697C47.3575 96.4697 47.3164 96.458 47.2813 96.4346C47.2461 96.4111 47.2139 96.376 47.1846 96.3291C47.1612 96.2822 47.1436 96.2236 47.1319 96.1533C47.1202 96.0771 47.1143 95.9951 47.1143 95.9072C47.1143 95.7607 47.1231 95.6465 47.1407 95.5645C47.1641 95.4766 47.2139 95.3945 47.2901 95.3184C47.3721 95.2422 47.5098 95.1543 47.7032 95.0547C47.8965 94.9492 48.1192 94.8555 48.3711 94.7734C48.6231 94.6855 48.8985 94.6152 49.1973 94.5625C49.4961 94.5039 49.7979 94.4746 50.1026 94.4746C50.6709 94.4746 51.1543 94.5391 51.5528 94.668C51.9512 94.7969 52.2735 94.9873 52.5196 95.2393C52.7657 95.4854 52.9444 95.793 53.0557 96.1621C53.167 96.5312 53.2227 96.9619 53.2227 97.4541V102.789ZM51.7813 99.1768H50.542C50.1436 99.1768 49.7979 99.2119 49.5049 99.2822C49.212 99.3467 48.9688 99.4463 48.7754 99.5811C48.5821 99.71 48.4385 99.8682 48.3448 100.056C48.2569 100.237 48.2129 100.448 48.2129 100.688C48.2129 101.099 48.3418 101.427 48.5996 101.673C48.8633 101.913 49.2295 102.033 49.6983 102.033C50.0791 102.033 50.4307 101.937 50.753 101.743C51.0811 101.55 51.4239 101.254 51.7813 100.855V99.1768ZM53.1612 91.4512C53.1612 92.0723 53.0088 92.5469 52.7041 92.875C52.3995 93.2031 51.9864 93.3672 51.4649 93.3672C51.2481 93.3672 51.0547 93.3408 50.8848 93.2881C50.7149 93.2295 50.5596 93.1562 50.419 93.0684C50.2784 92.9805 50.1495 92.8867 50.0323 92.7871C49.9151 92.6875 49.7979 92.5938 49.6807 92.5059C49.5694 92.418 49.458 92.3477 49.3467 92.2949C49.2354 92.2363 49.1153 92.207 48.9864 92.207C48.752 92.207 48.5879 92.292 48.4942 92.4619C48.4004 92.6318 48.3536 92.8574 48.3536 93.1387C48.3536 93.1797 48.3477 93.2178 48.336 93.2529C48.3243 93.2822 48.2979 93.3057 48.2569 93.3232C48.2217 93.3408 48.1661 93.3525 48.0899 93.3584C48.0196 93.3643 47.9287 93.3672 47.8174 93.3672C47.7237 93.3672 47.6446 93.3643 47.5801 93.3584C47.5157 93.3467 47.4629 93.3291 47.4219 93.3057C47.3868 93.2764 47.3604 93.2383 47.3428 93.1914C47.3252 93.1387 47.3164 93.0742 47.3164 92.998C47.3164 92.418 47.4629 91.9551 47.7559 91.6094C48.0489 91.2637 48.4678 91.0908 49.0127 91.0908C49.3291 91.0908 49.6016 91.1523 49.8301 91.2754C50.0586 91.3926 50.2637 91.5244 50.4454 91.6709C50.6329 91.8115 50.8057 91.9434 50.9639 92.0664C51.128 92.1895 51.3037 92.251 51.4912 92.251C51.7022 92.251 51.8604 92.1748 51.9659 92.0225C52.0772 91.8643 52.1329 91.6328 52.1329 91.3281C52.1329 91.2344 52.1621 91.1729 52.2207 91.1436C52.2852 91.1084 52.42 91.0908 52.625 91.0908C52.8418 91.0908 52.9854 91.1143 53.0557 91.1611C53.126 91.2021 53.1612 91.2988 53.1612 91.4512ZM66.491 98.7373C66.491 99.3818 66.4061 99.9766 66.2361 100.521C66.0662 101.061 65.8113 101.526 65.4715 101.919C65.1375 102.312 64.7156 102.619 64.2059 102.842C63.702 103.059 63.116 103.167 62.448 103.167C61.7977 103.167 61.2293 103.07 60.743 102.877C60.2625 102.684 59.8611 102.402 59.5389 102.033C59.2166 101.664 58.9764 101.216 58.8182 100.688C58.66 100.161 58.5809 99.5635 58.5809 98.8955C58.5809 98.251 58.6629 97.6592 58.827 97.1201C58.9969 96.5752 59.2488 96.1064 59.5828 95.7139C59.9227 95.3213 60.3445 95.0166 60.8484 94.7998C61.3523 94.583 61.9412 94.4746 62.615 94.4746C63.2654 94.4746 63.8309 94.5713 64.3113 94.7646C64.7977 94.958 65.202 95.2393 65.5242 95.6084C65.8465 95.9775 66.0867 96.4258 66.2449 96.9531C66.409 97.4805 66.491 98.0752 66.491 98.7373ZM64.9617 98.834C64.9617 98.4062 64.9207 98.002 64.8387 97.6211C64.7625 97.2402 64.6336 96.9062 64.452 96.6191C64.2703 96.332 64.0242 96.1064 63.7137 95.9424C63.4031 95.7725 63.0164 95.6875 62.5535 95.6875C62.1258 95.6875 61.7566 95.7637 61.4461 95.916C61.1414 96.0684 60.8895 96.2852 60.6902 96.5664C60.491 96.8418 60.3416 97.1699 60.242 97.5508C60.1482 97.9316 60.1014 98.3477 60.1014 98.7988C60.1014 99.2324 60.1395 99.6396 60.2156 100.021C60.2977 100.401 60.4295 100.735 60.6111 101.022C60.7986 101.304 61.0477 101.529 61.3582 101.699C61.6688 101.863 62.0555 101.945 62.5184 101.945C62.9402 101.945 63.3064 101.869 63.617 101.717C63.9275 101.564 64.1824 101.351 64.3816 101.075C64.5809 100.8 64.7273 100.472 64.8211 100.091C64.9148 99.71 64.9617 99.291 64.9617 98.834ZM86.9456 101.392C86.9456 101.485 86.9427 101.567 86.9368 101.638C86.931 101.708 86.9193 101.77 86.9017 101.822C86.89 101.875 86.8724 101.922 86.8489 101.963C86.8255 102.004 86.7845 102.054 86.7259 102.112C86.6673 102.171 86.5443 102.262 86.3568 102.385C86.1693 102.502 85.9349 102.619 85.6536 102.736C85.3782 102.848 85.0589 102.941 84.6956 103.018C84.3382 103.1 83.9456 103.141 83.5179 103.141C82.7796 103.141 82.1116 103.018 81.514 102.771C80.9222 102.525 80.4154 102.162 79.9935 101.682C79.5775 101.201 79.2552 100.609 79.0267 99.9062C78.804 99.1973 78.6927 98.3828 78.6927 97.4629C78.6927 96.5195 78.8128 95.6787 79.053 94.9404C79.2991 94.2021 79.6419 93.5781 80.0814 93.0684C80.5208 92.5527 81.0452 92.1602 81.6546 91.8906C82.2698 91.6211 82.9495 91.4863 83.6937 91.4863C84.0218 91.4863 84.3411 91.5186 84.6517 91.583C84.9622 91.6416 85.2493 91.7178 85.513 91.8115C85.7767 91.9053 86.0111 92.0137 86.2161 92.1367C86.4212 92.2598 86.5618 92.3623 86.638 92.4443C86.72 92.5205 86.7728 92.5791 86.7962 92.6201C86.8196 92.6611 86.8372 92.7109 86.8489 92.7695C86.8665 92.8223 86.8782 92.8867 86.8841 92.9629C86.8958 93.0391 86.9017 93.1299 86.9017 93.2354C86.9017 93.3525 86.8958 93.4521 86.8841 93.5342C86.8724 93.6162 86.8548 93.6865 86.8314 93.7451C86.8079 93.7979 86.7786 93.8389 86.7435 93.8682C86.7142 93.8916 86.6761 93.9033 86.6292 93.9033C86.5472 93.9033 86.4329 93.8477 86.2864 93.7363C86.14 93.6191 85.9495 93.4932 85.7152 93.3584C85.4866 93.2178 85.2054 93.0918 84.8714 92.9805C84.5433 92.8633 84.1478 92.8047 83.6849 92.8047C83.181 92.8047 82.721 92.9072 82.305 93.1123C81.8948 93.3115 81.5433 93.6074 81.2503 94C80.9573 94.3926 80.7288 94.873 80.5648 95.4414C80.4066 96.0039 80.3275 96.6484 80.3275 97.375C80.3275 98.0957 80.4036 98.7344 80.556 99.291C80.7142 99.8418 80.9368 100.305 81.2239 100.68C81.5169 101.049 81.8743 101.33 82.2962 101.523C82.7181 101.711 83.1956 101.805 83.7288 101.805C84.18 101.805 84.5726 101.749 84.9066 101.638C85.2464 101.526 85.5335 101.403 85.7679 101.269C86.0081 101.128 86.2044 101.002 86.3568 100.891C86.5091 100.779 86.6292 100.724 86.7171 100.724C86.7581 100.724 86.7933 100.732 86.8226 100.75C86.8519 100.768 86.8753 100.803 86.8929 100.855C86.9105 100.902 86.9222 100.97 86.928 101.058C86.9398 101.146 86.9456 101.257 86.9456 101.392ZM99.379 98.7373C99.379 99.3818 99.294 99.9766 99.1241 100.521C98.9542 101.061 98.6993 101.526 98.3595 101.919C98.0255 102.312 97.6036 102.619 97.0938 102.842C96.5899 103.059 96.004 103.167 95.336 103.167C94.6856 103.167 94.1173 103.07 93.6309 102.877C93.1505 102.684 92.7491 102.402 92.4268 102.033C92.1046 101.664 91.8643 101.216 91.7061 100.688C91.5479 100.161 91.4688 99.5635 91.4688 98.8955C91.4688 98.251 91.5509 97.6592 91.7149 97.1201C91.8848 96.5752 92.1368 96.1064 92.4708 95.7139C92.8106 95.3213 93.2325 95.0166 93.7364 94.7998C94.2403 94.583 94.8292 94.4746 95.503 94.4746C96.1534 94.4746 96.7188 94.5713 97.1993 94.7646C97.6856 94.958 98.0899 95.2393 98.4122 95.6084C98.7345 95.9775 98.9747 96.4258 99.1329 96.9531C99.297 97.4805 99.379 98.0752 99.379 98.7373ZM97.8497 98.834C97.8497 98.4062 97.8087 98.002 97.7266 97.6211C97.6505 97.2402 97.5216 96.9062 97.3399 96.6191C97.1583 96.332 96.9122 96.1064 96.6016 95.9424C96.2911 95.7725 95.9044 95.6875 95.4415 95.6875C95.0137 95.6875 94.6446 95.7637 94.3341 95.916C94.0294 96.0684 93.7774 96.2852 93.5782 96.5664C93.379 96.8418 93.2296 97.1699 93.13 97.5508C93.0362 97.9316 92.9893 98.3477 92.9893 98.7988C92.9893 99.2324 93.0274 99.6396 93.1036 100.021C93.1856 100.401 93.3175 100.735 93.4991 101.022C93.6866 101.304 93.9356 101.529 94.2462 101.699C94.5567 101.863 94.9434 101.945 95.4063 101.945C95.8282 101.945 96.1944 101.869 96.505 101.717C96.8155 101.564 97.0704 101.351 97.2696 101.075C97.4688 100.8 97.6153 100.472 97.7091 100.091C97.8028 99.71 97.8497 99.291 97.8497 98.834ZM111.566 102.78C111.566 102.827 111.555 102.868 111.531 102.903C111.508 102.933 111.47 102.959 111.417 102.982C111.364 103.006 111.291 103.023 111.197 103.035C111.103 103.047 110.986 103.053 110.846 103.053C110.699 103.053 110.579 103.047 110.485 103.035C110.391 103.023 110.318 103.006 110.265 102.982C110.213 102.959 110.175 102.933 110.151 102.903C110.128 102.868 110.116 102.827 110.116 102.78V98.1484C110.116 97.6973 110.081 97.334 110.011 97.0586C109.94 96.7832 109.838 96.5459 109.703 96.3467C109.568 96.1475 109.392 95.9951 109.176 95.8896C108.965 95.7842 108.719 95.7314 108.437 95.7314C108.074 95.7314 107.711 95.8604 107.348 96.1182C106.984 96.376 106.603 96.7539 106.205 97.252V102.78C106.205 102.827 106.193 102.868 106.17 102.903C106.146 102.933 106.108 102.959 106.056 102.982C106.003 103.006 105.93 103.023 105.836 103.035C105.742 103.047 105.622 103.053 105.475 103.053C105.335 103.053 105.218 103.047 105.124 103.035C105.03 103.023 104.954 103.006 104.895 102.982C104.843 102.959 104.805 102.933 104.781 102.903C104.764 102.868 104.755 102.827 104.755 102.78V94.8701C104.755 94.8232 104.764 94.7852 104.781 94.7559C104.799 94.7207 104.834 94.6914 104.887 94.668C104.939 94.6387 105.007 94.6211 105.089 94.6152C105.171 94.6035 105.279 94.5977 105.414 94.5977C105.543 94.5977 105.648 94.6035 105.73 94.6152C105.818 94.6211 105.886 94.6387 105.932 94.668C105.979 94.6914 106.012 94.7207 106.029 94.7559C106.053 94.7852 106.064 94.8232 106.064 94.8701V95.916C106.51 95.418 106.952 95.0547 107.391 94.8262C107.837 94.5918 108.285 94.4746 108.736 94.4746C109.264 94.4746 109.706 94.5654 110.063 94.7471C110.427 94.9229 110.72 95.1602 110.942 95.459C111.165 95.7578 111.323 96.1094 111.417 96.5137C111.516 96.9121 111.566 97.3926 111.566 97.9551V102.78ZM121.389 102.2C121.389 102.37 121.378 102.505 121.354 102.604C121.331 102.704 121.296 102.777 121.249 102.824C121.202 102.871 121.131 102.915 121.038 102.956C120.944 102.997 120.836 103.029 120.713 103.053C120.595 103.082 120.469 103.105 120.335 103.123C120.2 103.141 120.065 103.149 119.93 103.149C119.52 103.149 119.169 103.097 118.876 102.991C118.583 102.88 118.342 102.716 118.155 102.499C117.967 102.276 117.83 101.998 117.742 101.664C117.66 101.324 117.619 100.926 117.619 100.469V95.8457H116.511C116.423 95.8457 116.353 95.7988 116.3 95.7051C116.248 95.6113 116.221 95.459 116.221 95.248C116.221 95.1367 116.227 95.043 116.239 94.9668C116.256 94.8906 116.277 94.8291 116.3 94.7822C116.324 94.7295 116.353 94.6943 116.388 94.6768C116.429 94.6533 116.473 94.6416 116.52 94.6416H117.619V92.7607C117.619 92.7197 117.628 92.6816 117.645 92.6465C117.669 92.6113 117.707 92.582 117.759 92.5586C117.818 92.5293 117.894 92.5088 117.988 92.4971C118.082 92.4854 118.199 92.4795 118.339 92.4795C118.486 92.4795 118.606 92.4854 118.7 92.4971C118.794 92.5088 118.867 92.5293 118.92 92.5586C118.972 92.582 119.01 92.6113 119.034 92.6465C119.057 92.6816 119.069 92.7197 119.069 92.7607V94.6416H121.099C121.146 94.6416 121.187 94.6533 121.222 94.6768C121.257 94.6943 121.287 94.7295 121.31 94.7822C121.339 94.8291 121.36 94.8906 121.372 94.9668C121.383 95.043 121.389 95.1367 121.389 95.248C121.389 95.459 121.363 95.6113 121.31 95.7051C121.257 95.7988 121.187 95.8457 121.099 95.8457H119.069V100.258C119.069 100.803 119.148 101.216 119.306 101.497C119.47 101.772 119.76 101.91 120.176 101.91C120.311 101.91 120.431 101.898 120.537 101.875C120.642 101.846 120.736 101.816 120.818 101.787C120.9 101.758 120.97 101.731 121.029 101.708C121.088 101.679 121.14 101.664 121.187 101.664C121.216 101.664 121.243 101.673 121.266 101.69C121.296 101.702 121.316 101.729 121.328 101.77C121.345 101.811 121.36 101.866 121.372 101.937C121.383 102.007 121.389 102.095 121.389 102.2ZM132.276 102.789C132.276 102.859 132.252 102.912 132.205 102.947C132.159 102.982 132.094 103.009 132.012 103.026C131.93 103.044 131.81 103.053 131.652 103.053C131.499 103.053 131.376 103.044 131.283 103.026C131.195 103.009 131.13 102.982 131.089 102.947C131.048 102.912 131.028 102.859 131.028 102.789V101.998C130.682 102.367 130.295 102.654 129.868 102.859C129.446 103.064 128.997 103.167 128.523 103.167C128.107 103.167 127.729 103.111 127.389 103C127.055 102.895 126.768 102.739 126.528 102.534C126.293 102.329 126.109 102.077 125.974 101.778C125.845 101.479 125.781 101.14 125.781 100.759C125.781 100.313 125.871 99.9268 126.053 99.5986C126.235 99.2705 126.495 98.998 126.835 98.7812C127.175 98.5645 127.591 98.4033 128.083 98.2979C128.576 98.1865 129.129 98.1309 129.744 98.1309H130.834V97.5156C130.834 97.2109 130.802 96.9414 130.738 96.707C130.673 96.4727 130.568 96.2793 130.421 96.127C130.281 95.9688 130.096 95.8516 129.868 95.7754C129.639 95.6934 129.358 95.6523 129.024 95.6523C128.666 95.6523 128.344 95.6963 128.057 95.7842C127.776 95.8662 127.527 95.96 127.31 96.0654C127.099 96.165 126.92 96.2588 126.774 96.3467C126.633 96.4287 126.528 96.4697 126.457 96.4697C126.411 96.4697 126.369 96.458 126.334 96.4346C126.299 96.4111 126.267 96.376 126.238 96.3291C126.214 96.2822 126.197 96.2236 126.185 96.1533C126.173 96.0771 126.167 95.9951 126.167 95.9072C126.167 95.7607 126.176 95.6465 126.194 95.5645C126.217 95.4766 126.267 95.3945 126.343 95.3184C126.425 95.2422 126.563 95.1543 126.756 95.0547C126.95 94.9492 127.172 94.8555 127.424 94.7734C127.676 94.6855 127.952 94.6152 128.25 94.5625C128.549 94.5039 128.851 94.4746 129.156 94.4746C129.724 94.4746 130.207 94.5391 130.606 94.668C131.004 94.7969 131.327 94.9873 131.573 95.2393C131.819 95.4854 131.997 95.793 132.109 96.1621C132.22 96.5312 132.276 96.9619 132.276 97.4541V102.789ZM130.834 99.1768H129.595C129.197 99.1768 128.851 99.2119 128.558 99.2822C128.265 99.3467 128.022 99.4463 127.828 99.5811C127.635 99.71 127.492 99.8682 127.398 100.056C127.31 100.237 127.266 100.448 127.266 100.688C127.266 101.099 127.395 101.427 127.653 101.673C127.916 101.913 128.283 102.033 128.751 102.033C129.132 102.033 129.484 101.937 129.806 101.743C130.134 101.55 130.477 101.254 130.834 100.855V99.1768ZM129.964 91.0029C129.999 90.9385 130.04 90.8857 130.087 90.8447C130.134 90.8037 130.19 90.7715 130.254 90.748C130.325 90.7246 130.41 90.707 130.509 90.6953C130.609 90.6836 130.729 90.6777 130.869 90.6777C131.034 90.6777 131.165 90.6895 131.265 90.7129C131.37 90.7305 131.444 90.7598 131.485 90.8008C131.526 90.8359 131.543 90.8799 131.537 90.9326C131.532 90.9795 131.505 91.0293 131.458 91.082L129.868 93.1299C129.821 93.1885 129.777 93.2354 129.736 93.2705C129.701 93.3057 129.657 93.335 129.604 93.3584C129.557 93.376 129.493 93.3906 129.411 93.4023C129.334 93.4082 129.238 93.4111 129.12 93.4111C128.992 93.4111 128.889 93.4023 128.813 93.3848C128.737 93.3672 128.681 93.3438 128.646 93.3145C128.617 93.2852 128.605 93.2471 128.611 93.2002C128.622 93.1533 128.649 93.0977 128.69 93.0332L129.964 91.0029ZM145.465 98.7197C145.465 99.4053 145.389 100.023 145.236 100.574C145.09 101.119 144.87 101.585 144.577 101.972C144.29 102.358 143.936 102.654 143.514 102.859C143.092 103.064 142.609 103.167 142.064 103.167C141.812 103.167 141.577 103.141 141.36 103.088C141.15 103.041 140.942 102.962 140.736 102.851C140.531 102.739 140.326 102.599 140.121 102.429C139.916 102.259 139.699 102.054 139.471 101.813V102.78C139.471 102.827 139.459 102.868 139.436 102.903C139.412 102.938 139.374 102.968 139.321 102.991C139.269 103.009 139.201 103.023 139.119 103.035C139.043 103.047 138.943 103.053 138.82 103.053C138.703 103.053 138.604 103.047 138.522 103.035C138.44 103.023 138.372 103.009 138.319 102.991C138.267 102.968 138.232 102.938 138.214 102.903C138.196 102.868 138.188 102.827 138.188 102.78V91.0381C138.188 90.9912 138.196 90.9502 138.214 90.915C138.237 90.8799 138.276 90.8506 138.328 90.8271C138.387 90.8037 138.463 90.7861 138.557 90.7744C138.651 90.7627 138.768 90.7568 138.908 90.7568C139.055 90.7568 139.175 90.7627 139.269 90.7744C139.362 90.7861 139.436 90.8037 139.488 90.8271C139.541 90.8506 139.579 90.8799 139.603 90.915C139.626 90.9502 139.638 90.9912 139.638 91.0381V95.7754C139.872 95.5352 140.098 95.333 140.315 95.1689C140.537 95.0049 140.754 94.873 140.965 94.7734C141.176 94.668 141.387 94.5918 141.598 94.5449C141.809 94.498 142.031 94.4746 142.266 94.4746C142.84 94.4746 143.329 94.5889 143.734 94.8174C144.144 95.0459 144.475 95.3535 144.727 95.7402C144.984 96.1211 145.172 96.5693 145.289 97.085C145.406 97.6006 145.465 98.1455 145.465 98.7197ZM143.936 98.8867C143.936 98.4824 143.903 98.0898 143.839 97.709C143.78 97.3281 143.675 96.9912 143.523 96.6982C143.37 96.4053 143.168 96.1709 142.916 95.9951C142.664 95.8135 142.351 95.7227 141.976 95.7227C141.788 95.7227 141.604 95.749 141.422 95.8018C141.24 95.8545 141.056 95.9424 140.868 96.0654C140.681 96.1885 140.484 96.3467 140.279 96.54C140.08 96.7334 139.866 96.9766 139.638 97.2695V100.425C140.036 100.911 140.417 101.283 140.78 101.541C141.144 101.793 141.522 101.919 141.914 101.919C142.277 101.919 142.588 101.831 142.846 101.655C143.104 101.479 143.312 101.248 143.47 100.961C143.634 100.668 143.751 100.343 143.821 99.9854C143.898 99.6221 143.936 99.2559 143.936 98.8867ZM152.335 102.78C152.335 102.827 152.323 102.868 152.3 102.903C152.276 102.933 152.238 102.959 152.185 102.982C152.133 103.006 152.059 103.023 151.966 103.035C151.872 103.047 151.752 103.053 151.605 103.053C151.465 103.053 151.348 103.047 151.254 103.035C151.16 103.023 151.084 103.006 151.025 102.982C150.973 102.959 150.934 102.933 150.911 102.903C150.893 102.868 150.885 102.827 150.885 102.78V94.8701C150.885 94.8291 150.893 94.791 150.911 94.7559C150.934 94.7207 150.973 94.6914 151.025 94.668C151.084 94.6445 151.16 94.627 151.254 94.6152C151.348 94.6035 151.465 94.5977 151.605 94.5977C151.752 94.5977 151.872 94.6035 151.966 94.6152C152.059 94.627 152.133 94.6445 152.185 94.668C152.238 94.6914 152.276 94.7207 152.3 94.7559C152.323 94.791 152.335 94.8291 152.335 94.8701V102.78ZM152.502 92.1982C152.502 92.5381 152.437 92.7695 152.308 92.8926C152.18 93.0156 151.942 93.0771 151.597 93.0771C151.257 93.0771 151.022 93.0186 150.893 92.9014C150.77 92.7783 150.709 92.5498 150.709 92.2158C150.709 91.876 150.773 91.6445 150.902 91.5215C151.031 91.3984 151.268 91.3369 151.614 91.3369C151.954 91.3369 152.185 91.3984 152.308 91.5215C152.437 91.6387 152.502 91.8643 152.502 92.1982ZM159.706 102.78C159.706 102.827 159.694 102.868 159.671 102.903C159.647 102.933 159.609 102.959 159.556 102.982C159.504 103.006 159.43 103.023 159.337 103.035C159.243 103.047 159.123 103.053 158.976 103.053C158.836 103.053 158.718 103.047 158.625 103.035C158.531 103.023 158.455 103.006 158.396 102.982C158.343 102.959 158.305 102.933 158.282 102.903C158.264 102.868 158.256 102.827 158.256 102.78V91.0381C158.256 90.9912 158.264 90.9502 158.282 90.915C158.305 90.8799 158.343 90.8506 158.396 90.8271C158.455 90.8037 158.531 90.7861 158.625 90.7744C158.718 90.7627 158.836 90.7568 158.976 90.7568C159.123 90.7568 159.243 90.7627 159.337 90.7744C159.43 90.7861 159.504 90.8037 159.556 90.8271C159.609 90.8506 159.647 90.8799 159.671 90.915C159.694 90.9502 159.706 90.9912 159.706 91.0381V102.78Z" fill="#751F2A"/>
</svg>
